# xmcd
#
# Track frame offsets: 
#        150
#        18032
#        39225
#        63802
#        82655
#        101007
#        115315
#        137387
#        167290
#        184702
#        204130
#        224330
#        242165
#
# Disc length: 3442 seconds
#
# Revision: 0
# Processed by: cddbd v1.5.2PL0 Copyright (c) Steve Scherf et al.
# Submitted via: ExactAudioCopy v0.99pb4
#
DISCID=930d700d
DTITLE=Melvin Davis - Love, Truth and Victory
DYEAR=1976
DGENRE=Soul
TTITLE0=You Can't Run Away
TTITLE1=Why Can't We Communicate
TTITLE2=Thinking Of You
TTITLE3=Roots Of Disco
TTITLE4=Let Love In Your Life
TTITLE5=Wacky World
TTITLE6=Do You Know You
TTITLE7=Street People
TTITLE8=Saving Myself For You
TTITLE9=Gonna Never Give Up
TTITLE10=Double Or Nothing
TTITLE11=Cash Flow
TTITLE12=Rising Of The Fall
EXTD=
EXTT0=
EXTT1=
EXTT2=
EXTT3=
EXTT4=
EXTT5=
EXTT6=
EXTT7=
EXTT8=
EXTT9=
EXTT10=
EXTT11=
EXTT12=
PLAYORDER=
